<?xml version="1.0" encoding="UTF-8" standalone="no"?>
<svg
   width="201"
   height="86"
   viewBox="0 0 201 86"
   fill="none"
   version="1.1"
   id="svg1"
   sodipodi:docname="logo.svg"
   xmlns:inkscape="http://www.inkscape.org/namespaces/inkscape"
   xmlns:sodipodi="http://sodipodi.sourceforge.net/DTD/sodipodi-0.dtd"
   xmlns="http://www.w3.org/2000/svg"
   xmlns:svg="http://www.w3.org/2000/svg">
  <defs
     id="defs1" />
  <sodipodi:namedview
     id="namedview1"
     pagecolor="#ffffff"
     bordercolor="#000000"
     borderopacity="0.25"
     inkscape:showpageshadow="2"
     inkscape:pageopacity="0.0"
     inkscape:pagecheckerboard="0"
     inkscape:deskcolor="#d1d1d1" />
  <g
     id="g10"
     transform="translate(-282.17599,-15.19089)">
    <path
       d="m 308.81843,15.524461 v 21.552434 c 0,4.7467 -1.2027,8.2746 -3.6081,10.5838 -2.4054,2.3092 -5.9013,3.4638 -10.4876,3.4638 -2.4375,0 -4.74666,-0.3047 -6.92757,-0.9141 -2.14882,-0.6094 -3.9609,-1.4913 -5.43621,-2.6459 l 2.9827,-5.3881 c 1.09045,0.898 2.42144,1.6036 3.99297,2.1167 1.57154,0.5132 3.15911,0.7697 4.76271,0.7697 2.5016,0 4.3297,-0.5773 5.4843,-1.7318 1.1546,-1.1546 1.7319,-2.9186 1.7319,-5.2919 v -0.866 c -0.9621,0.9622 -2.1007,1.6998 -3.4157,2.213 -1.3149,0.5131 -2.7261,0.7697 -4.2335,0.7697 -3.39962,0 -6.09367,-0.9621 -8.08214,-2.8865 -1.98847,-1.9564 -2.9827,-4.8749 -2.9827,-8.7556 V 15.524461 h 7.50486 v 11.882734 c 0,4.2014 1.74793,6.3021 5.24378,6.3021 1.796,0 3.2393,-0.5773 4.3297,-1.7319 1.0905,-1.1866 1.6357,-2.9346 1.6357,-5.2437 V 15.524461 Z m 40.1954,9.615137 c 3.2393,0 5.8051,0.962157 7.6973,2.886487 1.9243,1.89225 2.8865,4.74666 2.8865,8.56321 v 14.8173 h -7.5049 v -13.6627 c 0,-2.0526 -0.4329,-3.57601 -1.2989,-4.57024 -0.8338,-1.02631 -2.0366,-1.53946 -3.6081,-1.53946 -1.7639,0 -3.1591,0.57729 -4.1854,1.73189 -1.0263,1.12252 -1.5394,2.80631 -1.5394,5.05131 v 12.9892 h -7.5049 v -13.6627 c 0,-4.07313 -1.6357,-6.1097 -4.907,-6.1097 -1.7319,0 -3.111,0.57729 -4.1373,1.73189 -1.0263,1.12252 -1.5395,2.80631 -1.5395,5.05131 v 12.9892 h -7.5049 V 25.524461 h 7.1681 v 2.982704 c 0.9622,-1.09045 2.1328,-1.92433 3.5119,-2.50162 1.4112,-0.577298 2.9507,-0.865947 4.6184,-0.865947 1.8281,0 3.4798,0.368829 4.9552,1.106487 1.4753,0.70558 2.6619,1.74793 3.56,3.12702 1.0583,-1.34702 2.3893,-2.38936 3.9929,-3.12702 1.6357,-0.737658 3.4157,-1.106487 5.34,-1.106487 z m 30.0169,20.638397 c 1.347,0 2.5336,-0.1925 3.5603,-0.5773 1.058,-0.417 2.036,-1.0584 2.934,-1.9243 l 3.993,4.3297 c -2.437,2.7903 -5.997,4.1854 -10.6798,4.1854 -2.9185,0 -5.5003,-0.5613 -7.7454,-1.6838 -2.245,-1.1546 -3.9769,-2.7422 -5.1957,-4.7627 -1.2187,-2.0205 -1.8281,-4.3137 -1.8281,-6.8795 0,-2.5336 0.5934,-4.81076 1.78,-6.8313 1.2188,-2.05262 2.8705,-3.64018 4.9552,-4.76271 2.1167,-1.154591 4.4901,-1.731887 7.12,-1.731887 2.4695,0 4.7148,0.529189 6.7348,1.587567 2.021,1.02631 3.624,2.53369 4.811,4.52216 1.219,1.9564 1.828,4.28167 1.828,6.97567 l -19.1468,3.7043 c 0.5452,1.2829 1.3951,2.2451 2.5497,2.8865 1.1867,0.6415 2.6299,0.9622 4.3298,0.9622 z m -1.1065,-14.96164 c -1.8923,0 -3.4317,0.60937 -4.6184,1.82811 -1.1867,1.21873 -1.8121,2.90253 -1.8762,5.05133 l 12.6044,-2.4535 c -0.353,-1.34702 -1.075,-2.42144 -2.165,-3.22324 -1.0904,-0.8018 -2.4054,-1.2027 -3.9448,-1.2027 z m 41.8468,-5.291894 v 25.882134 h -7.504 v -9.6216 c -2.181,1.0905 -4.587,1.6357 -7.217,1.6357 -3.495,0 -6.141,-0.7858 -7.937,-2.3573 -1.764,-1.6036 -2.646,-4.0732 -2.646,-7.40866 v -8.130274 h 7.504 v 7.649194 c 0,1.57153 0.401,2.71004 1.203,3.41564 0.834,0.7056 2.021,1.0584 3.56,1.0584 1.957,0 3.801,-0.4169 5.533,-1.2508 V 25.524461 Z m 18.608,16.068134 h -3.897 v 9.814 h -7.504 V 25.524461 h 7.504 v 10.054634 h 4.041 l 7.024,-10.054634 h 7.986 l -9.044,12.411934 9.67,13.4702 h -8.852 z m 44.54,-16.068134 v 25.882134 h -7.168 v -3.0308 c -0.962,1.1225 -2.149,1.9724 -3.56,2.5497 -1.379,0.5773 -2.854,0.866 -4.426,0.866 -3.399,0 -6.109,-0.9782 -8.13,-2.9346 -1.988,-1.9564 -2.983,-4.8589 -2.983,-8.7076 V 25.524461 h 7.505 v 13.518334 c 0,4.1694 1.748,6.2541 5.244,6.2541 1.828,0 3.287,-0.5773 4.378,-1.7319 1.09,-1.1867 1.635,-2.9346 1.635,-5.2438 V 25.524461 Z M 282.88814,66.524495 h 7.45675 v 14.1027 h 11.25734 v -14.1027 h 7.5048 v 33.882095 h -7.5048 V 86.736895 h -11.25734 v 13.669695 h -7.45675 z m 46.29619,28.2535 c 1.347,0 2.5337,-0.1925 3.56,-0.5773 1.0583,-0.417 2.0365,-1.0584 2.9346,-1.9243 l 3.9929,4.329696 c -2.4374,2.7903 -5.9974,4.185399 -10.68,4.185399 -2.9185,0 -5.5003,-0.5613 -7.7454,-1.683799 -2.245,-1.1546 -3.9769,-2.7422 -5.1956,-4.762696 -1.2188,-2.0205 -1.8282,-4.3137 -1.8282,-6.8795 0,-2.5336 0.5934,-4.8108 1.78,-6.8313 1.2188,-2.0526 2.8705,-3.6402 4.9552,-4.7627 2.1167,-1.1546 4.4901,-1.7319 7.12,-1.7319 2.4695,0 4.7146,0.5292 6.7351,1.5876 2.0206,1.0263 3.6242,2.5337 4.8108,4.5221 1.2188,1.9564 1.8281,4.2817 1.8281,6.9757 l -19.147,3.7043 c 0.5452,1.2829 1.3951,2.2451 2.5497,2.8865 1.1867,0.6415 2.6299,0.9622 4.3298,0.9622 z m -1.1065,-14.9616 c -1.8923,0 -3.4317,0.6093 -4.6184,1.8281 -1.1867,1.2187 -1.8121,2.9025 -1.8762,5.0513 l 12.6043,-2.4535 c -0.3528,-1.347 -1.0744,-2.4214 -2.1649,-3.2232 -1.0904,-0.8018 -2.4054,-1.2027 -3.9448,-1.2027 z m 51.6613,-5.6768 c 3.2389,0 5.8049,0.9622 7.6969,2.8865 1.925,1.8922 2.887,4.7467 2.887,8.5632 v 14.817295 h -7.505 V 86.743895 c 0,-2.0526 -0.433,-3.576 -1.2989,-4.5702 -0.8339,-1.0264 -2.0366,-1.5395 -3.6081,-1.5395 -1.764,0 -3.1591,0.5773 -4.1854,1.7319 -1.0263,1.1225 -1.5395,2.8063 -1.5395,5.0513 v 12.989195 h -7.5048 V 86.743895 c 0,-4.0731 -1.6357,-6.1097 -4.907,-6.1097 -1.7319,0 -3.111,0.5773 -4.1373,1.7319 -1.0263,1.1225 -1.5395,2.8063 -1.5395,5.0513 v 12.989195 h -7.5049 V 74.524495 h 7.1681 v 2.9827 c 0.9622,-1.0905 2.1328,-1.9244 3.5119,-2.5017 1.4112,-0.5772 2.9507,-0.8659 4.6184,-0.8659 1.8281,0 3.4798,0.3688 4.9551,1.1065 1.4754,0.7056 2.662,1.7479 3.56,3.127 1.0584,-1.347 2.3894,-2.3894 3.993,-3.127 1.6357,-0.7377 3.4157,-1.1065 5.34,-1.1065 z"
       fill="#ffffff"
       id="path1"
       sodipodi:nodetypes="csssccccscsccscsccsscsccscsccscscsccsscsccccccscccsscccsccsccscccccssscccsccccscsccscsccccccccccccccccccccccscsccsscscccccccccccccccscccsccsccscccccssccccsscsccscscsccsscsccccccscccs" />
  </g>
</svg>
